<svg width="136" height="61" viewBox="0 0 136 61" fill="none" xmlns="http://www.w3.org/2000/svg">
<path d="M46.9899 56.0551V46.2551H50.2519C50.9986 46.2551 51.6099 46.3905 52.0859 46.6611C52.5619 46.9318 52.9119 47.2911 53.1359 47.7391C53.3599 48.1871 53.4719 48.6818 53.4719 49.2231C53.4719 49.7645 53.3599 50.2591 53.1359 50.7071C52.9119 51.1551 52.5619 51.5145 52.0859 51.7851C51.6099 52.0558 50.9986 52.1911 50.2519 52.1911H48.1659V56.0551H46.9899ZM48.1659 51.1131H50.2239C50.9146 51.1131 51.4279 50.9405 51.7639 50.5951C52.0999 50.2405 52.2679 49.7831 52.2679 49.2231C52.2679 48.6631 52.0999 48.2058 51.7639 47.8511C51.4279 47.4965 50.9146 47.3191 50.2239 47.3191H48.1659V51.1131ZM57.2184 56.0551V55.0471H59.5844V47.3331C59.5844 47.0998 59.4678 46.9831 59.2344 46.9831H57.4704V45.9751H59.5144C59.9158 45.9751 60.2238 46.0825 60.4384 46.2971C60.6531 46.5118 60.7604 46.8198 60.7604 47.2211V55.0471H63.1264V56.0551H57.2184ZM69.995 56.2231C69.4443 56.2231 68.987 56.1251 68.623 55.9291C68.259 55.7331 67.9883 55.4765 67.811 55.1591C67.6336 54.8325 67.545 54.4778 67.545 54.0951C67.545 53.3858 67.8016 52.8491 68.315 52.4851C68.8376 52.1118 69.533 51.9251 70.401 51.9251H72.305V51.7851C72.305 50.5718 71.7496 49.9651 70.639 49.9651C70.191 49.9651 69.813 50.0631 69.505 50.2591C69.2063 50.4551 69.015 50.7631 68.931 51.1831H67.727C67.7736 50.7165 67.9276 50.3151 68.189 49.9791C68.4596 49.6431 68.805 49.3865 69.225 49.2091C69.645 49.0318 70.1163 48.9431 70.639 48.9431C71.6283 48.9431 72.347 49.2045 72.795 49.7271C73.2523 50.2405 73.481 50.9265 73.481 51.7851V56.0551H72.473L72.375 54.9771H72.277C72.0716 55.3131 71.7963 55.6071 71.451 55.8591C71.115 56.1018 70.6296 56.2231 69.995 56.2231ZM70.205 55.1871C70.653 55.1871 71.031 55.0798 71.339 54.8651C71.6563 54.6505 71.8943 54.3658 72.053 54.0111C72.221 53.6565 72.305 53.2691 72.305 52.8491H70.499C69.8643 52.8491 69.4163 52.9565 69.155 53.1711C68.903 53.3858 68.777 53.6705 68.777 54.0251C68.777 54.3891 68.8983 54.6738 69.141 54.8791C69.3836 55.0845 69.7383 55.1871 70.205 55.1871ZM77.8295 56.0551V49.1111H78.8095L78.9355 50.1611H79.0055C79.1922 49.8251 79.4862 49.5405 79.8875 49.3071C80.2888 49.0645 80.7508 48.9431 81.2735 48.9431C82.1228 48.9431 82.7575 49.1951 83.1775 49.6991C83.6068 50.2031 83.8215 50.9311 83.8215 51.8831V56.0551H82.6455V52.0231C82.6455 51.4071 82.5102 50.9265 82.2395 50.5811C81.9688 50.2265 81.5488 50.0491 80.9795 50.0491C80.4288 50.0491 79.9622 50.2405 79.5795 50.6231C79.1968 50.9965 79.0055 51.5378 79.0055 52.2471V56.0551H77.8295ZM88.044 56.0551V49.1111H89.024L89.15 50.1611H89.22C89.4067 49.8251 89.7007 49.5405 90.102 49.3071C90.5034 49.0645 90.9654 48.9431 91.488 48.9431C92.3374 48.9431 92.972 49.1951 93.392 49.6991C93.8214 50.2031 94.036 50.9311 94.036 51.8831V56.0551H92.86V52.0231C92.86 51.4071 92.7247 50.9265 92.454 50.5811C92.1834 50.2265 91.7634 50.0491 91.194 50.0491C90.6434 50.0491 90.1767 50.2405 89.794 50.6231C89.4114 50.9965 89.22 51.5378 89.22 52.2471V56.0551H88.044ZM101.297 56.2231C100.643 56.2231 100.065 56.0738 99.5606 55.7751C99.0659 55.4671 98.6739 55.0425 98.3846 54.5011C98.0952 53.9505 97.9506 53.3111 97.9506 52.5831C97.9506 51.8551 98.0906 51.2205 98.3706 50.6791C98.6599 50.1285 99.0566 49.7038 99.5606 49.4051C100.065 49.0971 100.653 48.9431 101.325 48.9431C101.997 48.9431 102.571 49.0971 103.047 49.4051C103.523 49.7038 103.887 50.1005 104.139 50.5951C104.391 51.0898 104.517 51.6218 104.517 52.1911C104.517 52.2938 104.512 52.3965 104.503 52.4991C104.503 52.6018 104.503 52.7185 104.503 52.8491H99.1126C99.1406 53.3625 99.2572 53.7918 99.4626 54.1371C99.6772 54.4731 99.9432 54.7251 100.261 54.8931C100.587 55.0611 100.933 55.1451 101.297 55.1451C101.81 55.1451 102.211 55.0378 102.501 54.8231C102.79 54.6085 103.009 54.3098 103.159 53.9271H104.321C104.162 54.5711 103.831 55.1171 103.327 55.5651C102.823 56.0038 102.146 56.2231 101.297 56.2231ZM101.297 49.9931C100.755 49.9931 100.279 50.1565 99.8686 50.4831C99.4672 50.8098 99.2199 51.2671 99.1266 51.8551H103.355C103.317 51.2765 103.107 50.8238 102.725 50.4971C102.351 50.1611 101.875 49.9931 101.297 49.9931ZM108.417 56.0551V55.0471H110.195V50.4691C110.195 50.2358 110.083 50.1191 109.859 50.1191H108.599V49.1111H110.293C110.601 49.1111 110.848 49.1951 111.035 49.3631C111.222 49.5311 111.315 49.7785 111.315 50.1051V50.3991H111.371C111.483 49.9325 111.693 49.5731 112.001 49.3211C112.318 49.0691 112.757 48.9431 113.317 48.9431H114.591V50.1891H113.149C112.58 50.1891 112.141 50.3805 111.833 50.7631C111.525 51.1365 111.371 51.6171 111.371 52.2051V55.0471H113.555V56.0551H108.417Z" fill="#DDDCE0"/>
<path d="M7.28591 37.3072C6.66191 37.3072 6.16991 37.1872 5.80991 36.9472C5.44991 36.7072 5.18591 36.4312 5.01791 36.1192C4.87391 35.8072 4.77791 35.5912 4.72991 35.4712L0.961909 22.8512C0.649909 21.8432 0.601909 21.0992 0.817909 20.6192C1.03391 20.1152 1.65791 19.6952 2.68991 19.3592C3.36191 19.1432 3.90191 19.0472 4.30991 19.0712C4.74191 19.0952 5.08991 19.2632 5.35391 19.5752C5.64191 19.8872 5.89391 20.3792 6.10991 21.0512L7.60991 27.4072L11.3899 14.2312C11.4619 13.9912 11.5699 13.7152 11.7139 13.4032C11.8819 13.0912 12.1459 12.8152 12.5059 12.5752C12.8659 12.3352 13.3699 12.2152 14.0179 12.2152C14.7619 12.2152 15.3139 12.3472 15.6739 12.6112C16.0579 12.8752 16.3219 13.1632 16.4659 13.4752C16.6099 13.7872 16.7179 14.0272 16.7899 14.1952L20.6059 27.4792L27.0699 10.0872C27.2859 9.41516 27.5259 8.92316 27.7899 8.61116C28.0779 8.27516 28.4379 8.08316 28.8699 8.03516C29.3259 7.98716 29.8899 8.08316 30.5619 8.32316C31.2819 8.58716 31.7859 8.86316 32.0739 9.15116C32.3619 9.43916 32.5059 9.79916 32.5059 10.2312C32.5299 10.6392 32.4459 11.1792 32.2539 11.8512L23.4859 35.4712C23.4379 35.6152 23.3299 35.8432 23.1619 36.1552C23.0179 36.4432 22.7659 36.7072 22.4059 36.9472C22.0699 37.1872 21.5659 37.3072 20.8939 37.3072C20.2459 37.3072 19.7299 37.1632 19.3459 36.8752C18.9619 36.5872 18.6859 36.2872 18.5179 35.9752C18.3739 35.6392 18.2779 35.4112 18.2299 35.2912L14.0899 21.8632L9.94991 35.2912C9.92591 35.4112 9.82991 35.6392 9.66191 35.9752C9.49391 36.3112 9.21791 36.6232 8.83391 36.9112C8.47391 37.1752 7.95791 37.3072 7.28591 37.3072Z" fill="#7B65E9"/>
<path d="M34.5326 37.3792C33.6446 37.3792 33.0086 37.2592 32.6246 37.0192C32.2646 36.7552 32.0366 36.4192 31.9406 36.0112C31.8686 35.5792 31.8326 35.1352 31.8326 34.6792V22.1152C31.8326 21.6352 31.8686 21.1912 31.9406 20.7832C32.0366 20.3752 32.2766 20.0512 32.6606 19.8112C33.0446 19.5472 33.6806 19.4152 34.5686 19.4152C35.4326 19.4152 36.0446 19.5472 36.4046 19.8112C36.7886 20.0752 37.0166 20.4112 37.0886 20.8192C37.1846 21.2272 37.2326 21.6832 37.2326 22.1872V34.7152C37.2326 35.1712 37.1846 35.6152 37.0886 36.0472C37.0166 36.4552 36.7886 36.7792 36.4046 37.0192C36.0446 37.2592 35.4206 37.3792 34.5326 37.3792Z" fill="#7B65E9"/>
<path d="M46.8513 37.6672C46.2033 37.6672 45.4953 37.5952 44.7273 37.4512C43.9833 37.3072 43.2513 37.1032 42.5313 36.8392C41.8113 36.5512 41.2113 36.2272 40.7313 35.8672C40.2513 35.4832 39.9753 35.0512 39.9033 34.5712C39.8553 34.3312 39.8553 34.0792 39.9033 33.8152C39.9753 33.5272 40.0953 33.2392 40.2633 32.9512C40.4313 32.6392 40.6353 32.3152 40.8753 31.9792C41.0673 31.7152 41.2833 31.5472 41.5233 31.4752C41.7633 31.4032 42.0393 31.4152 42.3513 31.5112C42.7353 31.5832 43.1193 31.7152 43.5033 31.9072C43.9113 32.0752 44.3073 32.2672 44.6913 32.4832C45.0993 32.6752 45.5193 32.8552 45.9513 33.0232C46.3833 33.1672 46.8273 33.2392 47.2833 33.2392C47.9553 33.2392 48.4713 33.1432 48.8313 32.9512C49.2153 32.7352 49.4073 32.4472 49.4073 32.0872C49.4073 31.8232 49.3233 31.6072 49.1553 31.4392C49.0113 31.2712 48.7953 31.1272 48.5073 31.0072C48.2433 30.8632 47.9313 30.7432 47.5713 30.6472C47.2113 30.5512 46.8153 30.4552 46.3833 30.3592C45.9753 30.2392 45.5553 30.1192 45.1233 29.9992C44.5233 29.8312 43.9473 29.6152 43.3953 29.3512C42.8433 29.0872 42.3393 28.7512 41.8833 28.3432C41.4273 27.9112 41.0673 27.3952 40.8033 26.7952C40.5393 26.1712 40.4073 25.4152 40.4073 24.5272C40.4073 23.3512 40.6833 22.3672 41.2353 21.5752C41.7873 20.7832 42.5913 20.1832 43.6473 19.7752C44.7033 19.3432 45.9873 19.1272 47.4993 19.1272C47.9313 19.1272 48.3633 19.1512 48.7953 19.1992C49.2273 19.2472 49.6473 19.3312 50.0553 19.4512C50.4873 19.5712 50.9073 19.7152 51.3153 19.8832C51.7233 20.0512 52.1313 20.2552 52.5393 20.4952C53.2593 20.8312 53.6313 21.2872 53.6553 21.8632C53.6793 22.4392 53.4753 23.0272 53.0433 23.6272C52.7793 24.0352 52.5033 24.3352 52.2153 24.5272C51.9273 24.6952 51.6273 24.7432 51.3153 24.6712C50.9313 24.5752 50.5113 24.4192 50.0553 24.2032C49.6233 23.9872 49.1553 23.7832 48.6513 23.5912C48.1713 23.3992 47.6913 23.3032 47.2113 23.3032C46.8033 23.3032 46.4553 23.3632 46.1673 23.4832C45.8793 23.5792 45.6633 23.7232 45.5193 23.9152C45.3753 24.0832 45.3033 24.2872 45.3033 24.5272C45.3033 24.8392 45.3873 25.0912 45.5553 25.2832C45.7473 25.4512 45.9993 25.5952 46.3113 25.7152C46.6233 25.8352 46.9833 25.9432 47.3913 26.0392C47.7993 26.1352 48.2433 26.2312 48.7233 26.3272C49.3713 26.4472 50.0313 26.6152 50.7033 26.8312C51.3993 27.0232 52.0233 27.3112 52.5753 27.6952C53.1513 28.0792 53.6073 28.5952 53.9433 29.2432C54.3033 29.8912 54.4833 30.7432 54.4833 31.7992C54.4833 33.6952 53.8233 35.1472 52.5033 36.1552C51.1833 37.1632 49.2993 37.6672 46.8513 37.6672Z" fill="#7B65E9"/>
<path d="M65.7876 37.7032C64.1076 37.7032 62.6556 37.4272 61.4316 36.8752C60.2316 36.3232 59.2476 35.6032 58.4796 34.7152C57.7116 33.8032 57.1356 32.7952 56.7516 31.6912C56.3916 30.5872 56.2116 29.4832 56.2116 28.3792C56.2116 26.5792 56.6196 24.9832 57.4356 23.5912C58.2516 22.1992 59.3796 21.1072 60.8196 20.3152C62.2596 19.4992 63.9156 19.0912 65.7876 19.0912C67.1796 19.0912 68.3796 19.3192 69.3876 19.7752C70.4196 20.2072 71.2596 20.7832 71.9076 21.5032C72.5796 22.1992 73.0716 22.9552 73.3836 23.7712C73.7196 24.5872 73.8876 25.3672 73.8876 26.1112C73.8876 27.4312 73.5636 28.4152 72.9156 29.0632C72.2916 29.6872 71.4876 29.9992 70.5036 29.9992H61.9356C61.9836 30.6232 62.1996 31.1512 62.5836 31.5832C62.9916 32.0152 63.4956 32.3512 64.0956 32.5912C64.6956 32.8312 65.3316 32.9512 66.0036 32.9512C66.5796 32.9512 67.0836 32.9272 67.5156 32.8792C67.9476 32.8072 68.3196 32.7232 68.6316 32.6272C68.9436 32.5072 69.2316 32.3992 69.4956 32.3032C69.7596 32.1832 69.9876 32.0872 70.1796 32.0152C70.3956 31.9432 70.5996 31.8952 70.7916 31.8712C71.1516 31.8472 71.4756 31.9552 71.7636 32.1952C72.0756 32.4112 72.3516 32.7472 72.5916 33.2032C72.7596 33.4672 72.8676 33.7192 72.9156 33.9592C72.9876 34.1992 73.0236 34.4392 73.0236 34.6792C73.0236 35.2552 72.7236 35.7712 72.1236 36.2272C71.5476 36.6832 70.7196 37.0432 69.6396 37.3072C68.5836 37.5712 67.2996 37.7032 65.7876 37.7032ZM61.9356 27.0472H67.6236C68.0076 27.0472 68.2836 26.9872 68.4516 26.8672C68.6436 26.7232 68.7396 26.4592 68.7396 26.0752C68.7396 25.6432 68.6076 25.2712 68.3436 24.9592C68.0796 24.6232 67.7196 24.3712 67.2636 24.2032C66.8316 24.0112 66.3276 23.9152 65.7516 23.9152C65.0076 23.9152 64.3476 24.0592 63.7716 24.3472C63.1956 24.6352 62.7396 25.0192 62.4036 25.4992C62.0916 25.9792 61.9356 26.4952 61.9356 27.0472Z" fill="#7B65E9"/>
<path d="M79.1115 37.3792C78.2235 37.3792 77.5875 37.2472 77.2035 36.9832C76.8435 36.7192 76.6155 36.3712 76.5195 35.9392C76.4235 35.5072 76.3755 35.0632 76.3755 34.6072V14.9512C76.3755 14.4952 76.4235 14.0632 76.5195 13.6552C76.6155 13.2232 76.8555 12.8752 77.2395 12.6112C77.6235 12.3472 78.2595 12.2152 79.1475 12.2152H86.5275C87.5355 12.2152 88.5435 12.3952 89.5515 12.7552C90.5835 13.1152 91.5315 13.6792 92.3955 14.4472C93.2835 15.1912 93.9915 16.1152 94.5195 17.2192C95.0715 18.3232 95.3475 19.6192 95.3475 21.1072C95.3475 22.5712 95.0715 23.8552 94.5195 24.9592C93.9915 26.0632 93.2835 26.9872 92.3955 27.7312C91.5315 28.4512 90.5835 29.0032 89.5515 29.3872C88.5195 29.7472 87.4995 29.9272 86.4915 29.9272H81.8835V34.6432C81.8835 35.0992 81.8355 35.5432 81.7395 35.9752C81.6435 36.3832 81.4035 36.7192 81.0195 36.9832C80.6355 37.2472 79.9995 37.3792 79.1115 37.3792ZM81.8835 24.4552H86.5275C87.0555 24.4552 87.5715 24.3472 88.0755 24.1312C88.6035 23.8912 89.0355 23.5192 89.3715 23.0152C89.7315 22.5112 89.9115 21.8632 89.9115 21.0712C89.9115 20.3992 89.7675 19.8112 89.4795 19.3072C89.1915 18.8032 88.7835 18.4072 88.2555 18.1192C87.7515 17.8312 87.1635 17.6872 86.4915 17.6872H81.8835V24.4552Z" fill="#7B65E9"/>
<path d="M112.364 37.3432C111.476 37.3432 110.816 37.1872 110.384 36.8752C109.976 36.5632 109.772 36.1792 109.772 35.7232L110.132 35.1112C109.988 35.3512 109.712 35.6512 109.304 36.0112C108.896 36.3472 108.368 36.6592 107.72 36.9472C107.072 37.2112 106.268 37.3432 105.308 37.3432C104.204 37.3432 103.148 37.1032 102.14 36.6232C101.156 36.1432 100.28 35.4832 99.512 34.6432C98.744 33.7792 98.132 32.8072 97.676 31.7272C97.244 30.6472 97.028 29.5072 97.028 28.3072C97.028 27.1312 97.244 26.0152 97.676 24.9592C98.132 23.8792 98.744 22.9312 99.512 22.1152C100.304 21.2752 101.192 20.6152 102.176 20.1352C103.16 19.6552 104.204 19.4152 105.308 19.4152C106.196 19.4152 106.952 19.5472 107.576 19.8112C108.2 20.0512 108.716 20.3392 109.124 20.6752C109.556 21.0112 109.88 21.3352 110.096 21.6472L109.808 21.1432C109.784 20.5672 109.976 20.1352 110.384 19.8472C110.816 19.5352 111.488 19.3792 112.4 19.3792C113.264 19.3792 113.876 19.5112 114.236 19.7752C114.62 20.0392 114.848 20.3872 114.92 20.8192C115.016 21.2512 115.064 21.7072 115.064 22.1872V34.6072C115.064 35.0632 115.016 35.5072 114.92 35.9392C114.848 36.3712 114.62 36.7192 114.236 36.9832C113.876 37.2232 113.252 37.3432 112.364 37.3432ZM106.1 31.9792C106.724 31.9792 107.288 31.8232 107.792 31.5112C108.32 31.1752 108.728 30.7312 109.016 30.1792C109.328 29.6272 109.484 29.0152 109.484 28.3432C109.484 27.6472 109.328 27.0352 109.016 26.5072C108.704 25.9552 108.284 25.5232 107.756 25.2112C107.228 24.8752 106.652 24.7072 106.028 24.7072C105.332 24.7072 104.708 24.8752 104.156 25.2112C103.628 25.5472 103.196 25.9912 102.86 26.5432C102.548 27.0952 102.392 27.7192 102.392 28.4152C102.392 29.0632 102.548 29.6632 102.86 30.2152C103.196 30.7432 103.64 31.1752 104.192 31.5112C104.768 31.8232 105.404 31.9792 106.1 31.9792Z" fill="#7B65E9"/>
<path d="M122.37 44.6512C121.386 44.2192 120.81 43.7392 120.642 43.2112C120.498 42.6832 120.63 41.9752 121.038 41.0872L130.074 20.8912C130.482 19.9552 130.926 19.4032 131.406 19.2352C131.91 19.0432 132.654 19.1392 133.638 19.5232C134.598 19.9792 135.15 20.4592 135.294 20.9632C135.462 21.4672 135.354 22.1392 134.97 22.9792L125.898 43.3192C125.49 44.2552 125.046 44.8192 124.566 45.0112C124.086 45.2032 123.354 45.0832 122.37 44.6512ZM125.502 36.2632L117.042 23.3752C116.514 22.5832 116.298 21.9232 116.394 21.3952C116.514 20.8672 116.994 20.3272 117.834 19.7752C118.77 19.1992 119.49 18.9832 119.994 19.1272C120.522 19.2472 121.05 19.7152 121.578 20.5312L127.806 30.0712L125.502 36.2632Z" fill="#7B65E9"/>
<path d="M31.7342 3.24317C32.2821 2.90683 33.0005 3.16748 33.2052 3.77692L35.5026 10.6146C35.7693 11.4083 35.0007 12.1587 34.2136 11.8732L25.7687 8.80908C24.9816 8.52349 24.8731 7.45484 25.5867 7.0168L31.7342 3.24317Z" fill="#7B65E9"/>
</svg>
