<svg width="136" height="61" viewBox="0 0 136 61" fill="none" xmlns="http://www.w3.org/2000/svg">
<path d="M46.6753 56.0551V46.2551H49.9373C50.6839 46.2551 51.2953 46.3905 51.7713 46.6611C52.2473 46.9318 52.5973 47.2911 52.8213 47.7391C53.0453 48.1871 53.1573 48.6818 53.1573 49.2231C53.1573 49.7645 53.0453 50.2591 52.8213 50.7071C52.5973 51.1551 52.2473 51.5145 51.7713 51.7851C51.2953 52.0558 50.6839 52.1911 49.9373 52.1911H47.8513V56.0551H46.6753ZM47.8513 51.1131H49.9093C50.5999 51.1131 51.1133 50.9405 51.4493 50.5951C51.7853 50.2405 51.9533 49.7831 51.9533 49.2231C51.9533 48.6631 51.7853 48.2058 51.4493 47.8511C51.1133 47.4965 50.5999 47.3191 49.9093 47.3191H47.8513V51.1131ZM56.9038 56.0551V55.0471H59.2698V47.3331C59.2698 47.0998 59.1531 46.9831 58.9198 46.9831H57.1558V45.9751H59.1998C59.6011 45.9751 59.9091 46.0825 60.1238 46.2971C60.3385 46.5118 60.4458 46.8198 60.4458 47.2211V55.0471H62.8118V56.0551H56.9038ZM69.6803 56.2231C69.1297 56.2231 68.6723 56.1251 68.3083 55.9291C67.9443 55.7331 67.6737 55.4765 67.4963 55.1591C67.319 54.8325 67.2303 54.4778 67.2303 54.0951C67.2303 53.3858 67.487 52.8491 68.0003 52.4851C68.523 52.1118 69.2183 51.9251 70.0863 51.9251H71.9903V51.7851C71.9903 50.5718 71.435 49.9651 70.3243 49.9651C69.8763 49.9651 69.4983 50.0631 69.1903 50.2591C68.8917 50.4551 68.7003 50.7631 68.6163 51.1831H67.4123C67.459 50.7165 67.613 50.3151 67.8743 49.9791C68.145 49.6431 68.4903 49.3865 68.9103 49.2091C69.3303 49.0318 69.8017 48.9431 70.3243 48.9431C71.3137 48.9431 72.0323 49.2045 72.4803 49.7271C72.9377 50.2405 73.1663 50.9265 73.1663 51.7851V56.0551H72.1583L72.0603 54.9771H71.9623C71.757 55.3131 71.4817 55.6071 71.1363 55.8591C70.8003 56.1018 70.315 56.2231 69.6803 56.2231ZM69.8903 55.1871C70.3383 55.1871 70.7163 55.0798 71.0243 54.8651C71.3417 54.6505 71.5797 54.3658 71.7383 54.0111C71.9063 53.6565 71.9903 53.2691 71.9903 52.8491H70.1843C69.5497 52.8491 69.1017 52.9565 68.8403 53.1711C68.5883 53.3858 68.4623 53.6705 68.4623 54.0251C68.4623 54.3891 68.5837 54.6738 68.8263 54.8791C69.069 55.0845 69.4237 55.1871 69.8903 55.1871ZM77.5149 56.0551V49.1111H78.4949L78.6209 50.1611H78.6909C78.8775 49.8251 79.1715 49.5405 79.5729 49.3071C79.9742 49.0645 80.4362 48.9431 80.9589 48.9431C81.8082 48.9431 82.4429 49.1951 82.8629 49.6991C83.2922 50.2031 83.5069 50.9311 83.5069 51.8831V56.0551H82.3309V52.0231C82.3309 51.4071 82.1955 50.9265 81.9249 50.5811C81.6542 50.2265 81.2342 50.0491 80.6649 50.0491C80.1142 50.0491 79.6475 50.2405 79.2649 50.6231C78.8822 50.9965 78.6909 51.5378 78.6909 52.2471V56.0551H77.5149ZM87.7294 56.0551V49.1111H88.7094L88.8354 50.1611H88.9054C89.0921 49.8251 89.3861 49.5405 89.7874 49.3071C90.1887 49.0645 90.6507 48.9431 91.1734 48.9431C92.0227 48.9431 92.6574 49.1951 93.0774 49.6991C93.5067 50.2031 93.7214 50.9311 93.7214 51.8831V56.0551H92.5454V52.0231C92.5454 51.4071 92.4101 50.9265 92.1394 50.5811C91.8687 50.2265 91.4487 50.0491 90.8794 50.0491C90.3287 50.0491 89.8621 50.2405 89.4794 50.6231C89.0967 50.9965 88.9054 51.5378 88.9054 52.2471V56.0551H87.7294ZM100.982 56.2231C100.329 56.2231 99.7499 56.0738 99.2459 55.7751C98.7513 55.4671 98.3593 55.0425 98.0699 54.5011C97.7806 53.9505 97.6359 53.3111 97.6359 52.5831C97.6359 51.8551 97.7759 51.2205 98.0559 50.6791C98.3453 50.1285 98.7419 49.7038 99.2459 49.4051C99.7499 49.0971 100.338 48.9431 101.01 48.9431C101.682 48.9431 102.256 49.0971 102.732 49.4051C103.208 49.7038 103.572 50.1005 103.824 50.5951C104.076 51.0898 104.202 51.6218 104.202 52.1911C104.202 52.2938 104.197 52.3965 104.188 52.4991C104.188 52.6018 104.188 52.7185 104.188 52.8491H98.7979C98.8259 53.3625 98.9426 53.7918 99.1479 54.1371C99.3626 54.4731 99.6286 54.7251 99.9459 54.8931C100.273 55.0611 100.618 55.1451 100.982 55.1451C101.495 55.1451 101.897 55.0378 102.186 54.8231C102.475 54.6085 102.695 54.3098 102.844 53.9271H104.006C103.847 54.5711 103.516 55.1171 103.012 55.5651C102.508 56.0038 101.831 56.2231 100.982 56.2231ZM100.982 49.9931C100.441 49.9931 99.9646 50.1565 99.5539 50.4831C99.1526 50.8098 98.9053 51.2671 98.8119 51.8551H103.04C103.003 51.2765 102.793 50.8238 102.41 50.4971C102.037 50.1611 101.561 49.9931 100.982 49.9931ZM108.102 56.0551V55.0471H109.88V50.4691C109.88 50.2358 109.768 50.1191 109.544 50.1191H108.284V49.1111H109.978C110.286 49.1111 110.534 49.1951 110.72 49.3631C110.907 49.5311 111 49.7785 111 50.1051V50.3991H111.056C111.168 49.9325 111.378 49.5731 111.686 49.3211C112.004 49.0691 112.442 48.9431 113.002 48.9431H114.276V50.1891H112.834C112.265 50.1891 111.826 50.3805 111.518 50.7631C111.21 51.1365 111.056 51.6171 111.056 52.2051V55.0471H113.24V56.0551H108.102Z" fill="#3F3E5E"/>
<path d="M6.97127 37.3072C6.34727 37.3072 5.85527 37.1872 5.49527 36.9472C5.13527 36.7072 4.87127 36.4312 4.70327 36.1192C4.55927 35.8072 4.46327 35.5912 4.41527 35.4712L0.647273 22.8512C0.335273 21.8432 0.287273 21.0992 0.503273 20.6192C0.719273 20.1152 1.34327 19.6952 2.37527 19.3592C3.04727 19.1432 3.58727 19.0472 3.99527 19.0712C4.42727 19.0952 4.77527 19.2632 5.03927 19.5752C5.32727 19.8872 5.57927 20.3792 5.79527 21.0512L7.29527 27.4072L11.0753 14.2312C11.1473 13.9912 11.2553 13.7152 11.3993 13.4032C11.5673 13.0912 11.8313 12.8152 12.1913 12.5752C12.5513 12.3352 13.0553 12.2152 13.7033 12.2152C14.4473 12.2152 14.9993 12.3472 15.3593 12.6112C15.7433 12.8752 16.0073 13.1632 16.1513 13.4752C16.2953 13.7872 16.4033 14.0272 16.4753 14.1952L20.2913 27.4792L26.7553 10.0872C26.9713 9.41516 27.2113 8.92316 27.4753 8.61116C27.7633 8.27516 28.1233 8.08316 28.5553 8.03516C29.0113 7.98716 29.5753 8.08316 30.2473 8.32316C30.9673 8.58716 31.4713 8.86316 31.7593 9.15116C32.0473 9.43916 32.1913 9.79916 32.1913 10.2312C32.2153 10.6392 32.1313 11.1792 31.9393 11.8512L23.1713 35.4712C23.1233 35.6152 23.0153 35.8432 22.8473 36.1552C22.7033 36.4432 22.4513 36.7072 22.0913 36.9472C21.7553 37.1872 21.2513 37.3072 20.5793 37.3072C19.9313 37.3072 19.4153 37.1632 19.0313 36.8752C18.6473 36.5872 18.3713 36.2872 18.2033 35.9752C18.0593 35.6392 17.9633 35.4112 17.9153 35.2912L13.7753 21.8632L9.63527 35.2912C9.61127 35.4112 9.51527 35.6392 9.34727 35.9752C9.17927 36.3112 8.90327 36.6232 8.51927 36.9112C8.15927 37.1752 7.64327 37.3072 6.97127 37.3072Z" fill="#3F3E5E"/>
<path d="M34.2179 37.3792C33.3299 37.3792 32.6939 37.2592 32.3099 37.0192C31.9499 36.7552 31.7219 36.4192 31.6259 36.0112C31.5539 35.5792 31.5179 35.1352 31.5179 34.6792V22.1152C31.5179 21.6352 31.5539 21.1912 31.6259 20.7832C31.7219 20.3752 31.9619 20.0512 32.3459 19.8112C32.7299 19.5472 33.3659 19.4152 34.2539 19.4152C35.1179 19.4152 35.7299 19.5472 36.0899 19.8112C36.4739 20.0752 36.7019 20.4112 36.7739 20.8192C36.8699 21.2272 36.9179 21.6832 36.9179 22.1872V34.7152C36.9179 35.1712 36.8699 35.6152 36.7739 36.0472C36.7019 36.4552 36.4739 36.7792 36.0899 37.0192C35.7299 37.2592 35.1059 37.3792 34.2179 37.3792Z" fill="#3F3E5E"/>
<path d="M46.5367 37.6672C45.8887 37.6672 45.1807 37.5952 44.4127 37.4512C43.6687 37.3072 42.9367 37.1032 42.2167 36.8392C41.4967 36.5512 40.8967 36.2272 40.4167 35.8672C39.9367 35.4832 39.6607 35.0512 39.5887 34.5712C39.5407 34.3312 39.5407 34.0792 39.5887 33.8152C39.6607 33.5272 39.7807 33.2392 39.9487 32.9512C40.1167 32.6392 40.3207 32.3152 40.5607 31.9792C40.7527 31.7152 40.9687 31.5472 41.2087 31.4752C41.4487 31.4032 41.7247 31.4152 42.0367 31.5112C42.4207 31.5832 42.8047 31.7152 43.1887 31.9072C43.5967 32.0752 43.9927 32.2672 44.3767 32.4832C44.7847 32.6752 45.2047 32.8552 45.6367 33.0232C46.0687 33.1672 46.5127 33.2392 46.9687 33.2392C47.6407 33.2392 48.1567 33.1432 48.5167 32.9512C48.9007 32.7352 49.0927 32.4472 49.0927 32.0872C49.0927 31.8232 49.0087 31.6072 48.8407 31.4392C48.6967 31.2712 48.4807 31.1272 48.1927 31.0072C47.9287 30.8632 47.6167 30.7432 47.2567 30.6472C46.8967 30.5512 46.5007 30.4552 46.0687 30.3592C45.6607 30.2392 45.2407 30.1192 44.8087 29.9992C44.2087 29.8312 43.6327 29.6152 43.0807 29.3512C42.5287 29.0872 42.0247 28.7512 41.5687 28.3432C41.1127 27.9112 40.7527 27.3952 40.4887 26.7952C40.2247 26.1712 40.0927 25.4152 40.0927 24.5272C40.0927 23.3512 40.3687 22.3672 40.9207 21.5752C41.4727 20.7832 42.2767 20.1832 43.3327 19.7752C44.3887 19.3432 45.6727 19.1272 47.1847 19.1272C47.6167 19.1272 48.0487 19.1512 48.4807 19.1992C48.9127 19.2472 49.3327 19.3312 49.7407 19.4512C50.1727 19.5712 50.5927 19.7152 51.0007 19.8832C51.4087 20.0512 51.8167 20.2552 52.2247 20.4952C52.9447 20.8312 53.3167 21.2872 53.3407 21.8632C53.3647 22.4392 53.1607 23.0272 52.7287 23.6272C52.4647 24.0352 52.1887 24.3352 51.9007 24.5272C51.6127 24.6952 51.3127 24.7432 51.0007 24.6712C50.6167 24.5752 50.1967 24.4192 49.7407 24.2032C49.3087 23.9872 48.8407 23.7832 48.3367 23.5912C47.8567 23.3992 47.3767 23.3032 46.8967 23.3032C46.4887 23.3032 46.1407 23.3632 45.8527 23.4832C45.5647 23.5792 45.3487 23.7232 45.2047 23.9152C45.0607 24.0832 44.9887 24.2872 44.9887 24.5272C44.9887 24.8392 45.0727 25.0912 45.2407 25.2832C45.4327 25.4512 45.6847 25.5952 45.9967 25.7152C46.3087 25.8352 46.6687 25.9432 47.0767 26.0392C47.4847 26.1352 47.9287 26.2312 48.4087 26.3272C49.0567 26.4472 49.7167 26.6152 50.3887 26.8312C51.0847 27.0232 51.7087 27.3112 52.2607 27.6952C52.8367 28.0792 53.2927 28.5952 53.6287 29.2432C53.9887 29.8912 54.1687 30.7432 54.1687 31.7992C54.1687 33.6952 53.5087 35.1472 52.1887 36.1552C50.8687 37.1632 48.9847 37.6672 46.5367 37.6672Z" fill="#3F3E5E"/>
<path d="M65.473 37.7032C63.793 37.7032 62.341 37.4272 61.117 36.8752C59.917 36.3232 58.933 35.6032 58.165 34.7152C57.397 33.8032 56.821 32.7952 56.437 31.6912C56.077 30.5872 55.897 29.4832 55.897 28.3792C55.897 26.5792 56.305 24.9832 57.121 23.5912C57.937 22.1992 59.065 21.1072 60.505 20.3152C61.945 19.4992 63.601 19.0912 65.473 19.0912C66.865 19.0912 68.065 19.3192 69.073 19.7752C70.105 20.2072 70.945 20.7832 71.593 21.5032C72.265 22.1992 72.757 22.9552 73.069 23.7712C73.405 24.5872 73.573 25.3672 73.573 26.1112C73.573 27.4312 73.249 28.4152 72.601 29.0632C71.977 29.6872 71.173 29.9992 70.189 29.9992H61.621C61.669 30.6232 61.885 31.1512 62.269 31.5832C62.677 32.0152 63.181 32.3512 63.781 32.5912C64.381 32.8312 65.017 32.9512 65.689 32.9512C66.265 32.9512 66.769 32.9272 67.201 32.8792C67.633 32.8072 68.005 32.7232 68.317 32.6272C68.629 32.5072 68.917 32.3992 69.181 32.3032C69.445 32.1832 69.673 32.0872 69.865 32.0152C70.081 31.9432 70.285 31.8952 70.477 31.8712C70.837 31.8472 71.161 31.9552 71.449 32.1952C71.761 32.4112 72.037 32.7472 72.277 33.2032C72.445 33.4672 72.553 33.7192 72.601 33.9592C72.673 34.1992 72.709 34.4392 72.709 34.6792C72.709 35.2552 72.409 35.7712 71.809 36.2272C71.233 36.6832 70.405 37.0432 69.325 37.3072C68.269 37.5712 66.985 37.7032 65.473 37.7032ZM61.621 27.0472H67.309C67.693 27.0472 67.969 26.9872 68.137 26.8672C68.329 26.7232 68.425 26.4592 68.425 26.0752C68.425 25.6432 68.293 25.2712 68.029 24.9592C67.765 24.6232 67.405 24.3712 66.949 24.2032C66.517 24.0112 66.013 23.9152 65.437 23.9152C64.693 23.9152 64.033 24.0592 63.457 24.3472C62.881 24.6352 62.425 25.0192 62.089 25.4992C61.777 25.9792 61.621 26.4952 61.621 27.0472Z" fill="#3F3E5E"/>
<path d="M78.7969 37.3792C77.9089 37.3792 77.2729 37.2472 76.8889 36.9832C76.5289 36.7192 76.3009 36.3712 76.2049 35.9392C76.1089 35.5072 76.0609 35.0632 76.0609 34.6072V14.9512C76.0609 14.4952 76.1089 14.0632 76.2049 13.6552C76.3009 13.2232 76.5409 12.8752 76.9249 12.6112C77.3089 12.3472 77.9449 12.2152 78.8329 12.2152H86.2129C87.2209 12.2152 88.2289 12.3952 89.2369 12.7552C90.2689 13.1152 91.2169 13.6792 92.0809 14.4472C92.9689 15.1912 93.6769 16.1152 94.2049 17.2192C94.7569 18.3232 95.0329 19.6192 95.0329 21.1072C95.0329 22.5712 94.7569 23.8552 94.2049 24.9592C93.6769 26.0632 92.9689 26.9872 92.0809 27.7312C91.2169 28.4512 90.2689 29.0032 89.2369 29.3872C88.2049 29.7472 87.1849 29.9272 86.1769 29.9272H81.5689V34.6432C81.5689 35.0992 81.5209 35.5432 81.4249 35.9752C81.3289 36.3832 81.0889 36.7192 80.7049 36.9832C80.3209 37.2472 79.6849 37.3792 78.7969 37.3792ZM81.5689 24.4552H86.2129C86.7409 24.4552 87.2569 24.3472 87.7609 24.1312C88.2889 23.8912 88.7209 23.5192 89.0569 23.0152C89.4169 22.5112 89.5969 21.8632 89.5969 21.0712C89.5969 20.3992 89.4529 19.8112 89.1649 19.3072C88.8769 18.8032 88.4689 18.4072 87.9409 18.1192C87.4369 17.8312 86.8489 17.6872 86.1769 17.6872H81.5689V24.4552Z" fill="#3F3E5E"/>
<path d="M112.049 37.3432C111.161 37.3432 110.501 37.1872 110.069 36.8752C109.661 36.5632 109.457 36.1792 109.457 35.7232L109.817 35.1112C109.673 35.3512 109.397 35.6512 108.989 36.0112C108.581 36.3472 108.053 36.6592 107.405 36.9472C106.757 37.2112 105.953 37.3432 104.993 37.3432C103.889 37.3432 102.833 37.1032 101.825 36.6232C100.841 36.1432 99.9654 35.4832 99.1974 34.6432C98.4294 33.7792 97.8174 32.8072 97.3614 31.7272C96.9294 30.6472 96.7134 29.5072 96.7134 28.3072C96.7134 27.1312 96.9294 26.0152 97.3614 24.9592C97.8174 23.8792 98.4294 22.9312 99.1974 22.1152C99.9894 21.2752 100.877 20.6152 101.861 20.1352C102.845 19.6552 103.889 19.4152 104.993 19.4152C105.881 19.4152 106.637 19.5472 107.261 19.8112C107.885 20.0512 108.401 20.3392 108.809 20.6752C109.241 21.0112 109.565 21.3352 109.781 21.6472L109.493 21.1432C109.469 20.5672 109.661 20.1352 110.069 19.8472C110.501 19.5352 111.173 19.3792 112.085 19.3792C112.949 19.3792 113.561 19.5112 113.921 19.7752C114.305 20.0392 114.533 20.3872 114.605 20.8192C114.701 21.2512 114.749 21.7072 114.749 22.1872V34.6072C114.749 35.0632 114.701 35.5072 114.605 35.9392C114.533 36.3712 114.305 36.7192 113.921 36.9832C113.561 37.2232 112.937 37.3432 112.049 37.3432ZM105.785 31.9792C106.409 31.9792 106.973 31.8232 107.477 31.5112C108.005 31.1752 108.413 30.7312 108.701 30.1792C109.013 29.6272 109.169 29.0152 109.169 28.3432C109.169 27.6472 109.013 27.0352 108.701 26.5072C108.389 25.9552 107.969 25.5232 107.441 25.2112C106.913 24.8752 106.337 24.7072 105.713 24.7072C105.017 24.7072 104.393 24.8752 103.841 25.2112C103.313 25.5472 102.881 25.9912 102.545 26.5432C102.233 27.0952 102.077 27.7192 102.077 28.4152C102.077 29.0632 102.233 29.6632 102.545 30.2152C102.881 30.7432 103.325 31.1752 103.877 31.5112C104.453 31.8232 105.089 31.9792 105.785 31.9792Z" fill="#3F3E5E"/>
<path d="M122.055 44.6512C121.071 44.2192 120.495 43.7392 120.327 43.2112C120.183 42.6832 120.315 41.9752 120.723 41.0872L129.759 20.8912C130.167 19.9552 130.611 19.4032 131.091 19.2352C131.595 19.0432 132.339 19.1392 133.323 19.5232C134.283 19.9792 134.835 20.4592 134.979 20.9632C135.147 21.4672 135.039 22.1392 134.655 22.9792L125.583 43.3192C125.175 44.2552 124.731 44.8192 124.251 45.0112C123.771 45.2032 123.039 45.0832 122.055 44.6512ZM125.187 36.2632L116.727 23.3752C116.199 22.5832 115.983 21.9232 116.079 21.3952C116.199 20.8672 116.679 20.3272 117.519 19.7752C118.455 19.1992 119.175 18.9832 119.679 19.1272C120.207 19.2472 120.735 19.7152 121.263 20.5312L127.491 30.0712L125.187 36.2632Z" fill="#3F3E5E"/>
<path d="M31.4196 3.24317C31.9675 2.90683 32.6859 3.16748 32.8906 3.77692L35.188 10.6146C35.4547 11.4083 34.6861 12.1587 33.899 11.8732L25.4541 8.80908C24.667 8.52349 24.5584 7.45484 25.2721 7.0168L31.4196 3.24317Z" fill="#3F3E5E"/>
</svg>
