<svg width="135" height="61" viewBox="0 0 135 61" fill="none" xmlns="http://www.w3.org/2000/svg">
<path d="M46.3046 56.0551V46.2551H49.5666C50.3132 46.2551 50.9246 46.3905 51.4006 46.6611C51.8766 46.9318 52.2266 47.2911 52.4506 47.7391C52.6746 48.1871 52.7866 48.6818 52.7866 49.2231C52.7866 49.7645 52.6746 50.2591 52.4506 50.7071C52.2266 51.1551 51.8766 51.5145 51.4006 51.7851C50.9246 52.0558 50.3132 52.1911 49.5666 52.1911H47.4806V56.0551H46.3046ZM47.4806 51.1131H49.5386C50.2292 51.1131 50.7426 50.9405 51.0786 50.5951C51.4146 50.2405 51.5826 49.7831 51.5826 49.2231C51.5826 48.6631 51.4146 48.2058 51.0786 47.8511C50.7426 47.4965 50.2292 47.3191 49.5386 47.3191H47.4806V51.1131ZM56.5331 56.0551V55.0471H58.8991V47.3331C58.8991 47.0998 58.7824 46.9831 58.5491 46.9831H56.7851V45.9751H58.8291C59.2304 45.9751 59.5384 46.0825 59.7531 46.2971C59.9678 46.5118 60.0751 46.8198 60.0751 47.2211V55.0471H62.4411V56.0551H56.5331ZM69.3096 56.2231C68.759 56.2231 68.3016 56.1251 67.9376 55.9291C67.5736 55.7331 67.3029 55.4765 67.1256 55.1591C66.9483 54.8325 66.8596 54.4778 66.8596 54.0951C66.8596 53.3858 67.1163 52.8491 67.6296 52.4851C68.1523 52.1118 68.8476 51.9251 69.7156 51.9251H71.6196V51.7851C71.6196 50.5718 71.0643 49.9651 69.9536 49.9651C69.5056 49.9651 69.1276 50.0631 68.8196 50.2591C68.521 50.4551 68.3296 50.7631 68.2456 51.1831H67.0416C67.0883 50.7165 67.2423 50.3151 67.5036 49.9791C67.7743 49.6431 68.1196 49.3865 68.5396 49.2091C68.9596 49.0318 69.431 48.9431 69.9536 48.9431C70.943 48.9431 71.6616 49.2045 72.1096 49.7271C72.567 50.2405 72.7956 50.9265 72.7956 51.7851V56.0551H71.7876L71.6896 54.9771H71.5916C71.3863 55.3131 71.111 55.6071 70.7656 55.8591C70.4296 56.1018 69.9443 56.2231 69.3096 56.2231ZM69.5196 55.1871C69.9676 55.1871 70.3456 55.0798 70.6536 54.8651C70.971 54.6505 71.209 54.3658 71.3676 54.0111C71.5356 53.6565 71.6196 53.2691 71.6196 52.8491H69.8136C69.179 52.8491 68.731 52.9565 68.4696 53.1711C68.2176 53.3858 68.0916 53.6705 68.0916 54.0251C68.0916 54.3891 68.213 54.6738 68.4556 54.8791C68.6983 55.0845 69.0529 55.1871 69.5196 55.1871ZM77.1441 56.0551V49.1111H78.1241L78.2501 50.1611H78.3201C78.5068 49.8251 78.8008 49.5405 79.2021 49.3071C79.6035 49.0645 80.0655 48.9431 80.5881 48.9431C81.4375 48.9431 82.0721 49.1951 82.4921 49.6991C82.9215 50.2031 83.1361 50.9311 83.1361 51.8831V56.0551H81.9601V52.0231C81.9601 51.4071 81.8248 50.9265 81.5541 50.5811C81.2835 50.2265 80.8635 50.0491 80.2941 50.0491C79.7435 50.0491 79.2768 50.2405 78.8941 50.6231C78.5115 50.9965 78.3201 51.5378 78.3201 52.2471V56.0551H77.1441ZM87.3587 56.0551V49.1111H88.3387L88.4647 50.1611H88.5347C88.7213 49.8251 89.0153 49.5405 89.4167 49.3071C89.818 49.0645 90.28 48.9431 90.8027 48.9431C91.652 48.9431 92.2867 49.1951 92.7067 49.6991C93.136 50.2031 93.3507 50.9311 93.3507 51.8831V56.0551H92.1747V52.0231C92.1747 51.4071 92.0393 50.9265 91.7687 50.5811C91.498 50.2265 91.078 50.0491 90.5087 50.0491C89.958 50.0491 89.4913 50.2405 89.1087 50.6231C88.726 50.9965 88.5347 51.5378 88.5347 52.2471V56.0551H87.3587ZM100.611 56.2231C99.9579 56.2231 99.3792 56.0738 98.8752 55.7751C98.3805 55.4671 97.9885 55.0425 97.6992 54.5011C97.4099 53.9505 97.2652 53.3111 97.2652 52.5831C97.2652 51.8551 97.4052 51.2205 97.6852 50.6791C97.9745 50.1285 98.3712 49.7038 98.8752 49.4051C99.3792 49.0971 99.9672 48.9431 100.639 48.9431C101.311 48.9431 101.885 49.0971 102.361 49.4051C102.837 49.7038 103.201 50.1005 103.453 50.5951C103.705 51.0898 103.831 51.6218 103.831 52.1911C103.831 52.2938 103.827 52.3965 103.817 52.4991C103.817 52.6018 103.817 52.7185 103.817 52.8491H98.4272C98.4552 53.3625 98.5719 53.7918 98.7772 54.1371C98.9919 54.4731 99.2579 54.7251 99.5752 54.8931C99.9019 55.0611 100.247 55.1451 100.611 55.1451C101.125 55.1451 101.526 55.0378 101.815 54.8231C102.105 54.6085 102.324 54.3098 102.473 53.9271H103.635C103.477 54.5711 103.145 55.1171 102.641 55.5651C102.137 56.0038 101.461 56.2231 100.611 56.2231ZM100.611 49.9931C100.07 49.9931 99.5939 50.1565 99.1832 50.4831C98.7819 50.8098 98.5345 51.2671 98.4412 51.8551H102.669C102.632 51.2765 102.422 50.8238 102.039 50.4971C101.666 50.1611 101.19 49.9931 100.611 49.9931ZM107.732 56.0551V55.0471H109.51V50.4691C109.51 50.2358 109.398 50.1191 109.174 50.1191H107.914V49.1111H109.608C109.916 49.1111 110.163 49.1951 110.35 49.3631C110.536 49.5311 110.63 49.7785 110.63 50.1051V50.3991H110.686C110.798 49.9325 111.008 49.5731 111.316 49.3211C111.633 49.0691 112.072 48.9431 112.632 48.9431H113.906V50.1891H112.464C111.894 50.1891 111.456 50.3805 111.148 50.7631C110.84 51.1365 110.686 51.6171 110.686 52.2051V55.0471H112.87V56.0551H107.732Z" fill="#3F3E5E"/>
<path d="M6.60055 37.3072C5.97655 37.3072 5.48455 37.1872 5.12455 36.9472C4.76455 36.7072 4.50055 36.4312 4.33255 36.1192C4.18855 35.8072 4.09255 35.5912 4.04455 35.4712L0.276545 22.8512C-0.0354545 21.8432 -0.0834546 21.0992 0.132545 20.6192C0.348545 20.1152 0.972546 19.6952 2.00455 19.3592C2.67655 19.1432 3.21655 19.0472 3.62455 19.0712C4.05655 19.0952 4.40455 19.2632 4.66855 19.5752C4.95655 19.8872 5.20855 20.3792 5.42455 21.0512L6.92455 27.4072L10.7045 14.2312C10.7765 13.9912 10.8845 13.7152 11.0285 13.4032C11.1965 13.0912 11.4605 12.8152 11.8205 12.5752C12.1805 12.3352 12.6845 12.2152 13.3325 12.2152C14.0765 12.2152 14.6285 12.3472 14.9885 12.6112C15.3725 12.8752 15.6365 13.1632 15.7805 13.4752C15.9245 13.7872 16.0325 14.0272 16.1045 14.1952L19.9205 27.4792L26.3845 10.0872C26.6005 9.41516 26.8405 8.92316 27.1045 8.61116C27.3925 8.27516 27.7525 8.08316 28.1845 8.03516C28.6405 7.98716 29.2045 8.08316 29.8765 8.32316C30.5965 8.58716 31.1005 8.86316 31.3885 9.15116C31.6765 9.43916 31.8205 9.79916 31.8205 10.2312C31.8445 10.6392 31.7605 11.1792 31.5685 11.8512L22.8005 35.4712C22.7525 35.6152 22.6445 35.8432 22.4765 36.1552C22.3325 36.4432 22.0805 36.7072 21.7205 36.9472C21.3845 37.1872 20.8805 37.3072 20.2085 37.3072C19.5605 37.3072 19.0445 37.1632 18.6605 36.8752C18.2765 36.5872 18.0005 36.2872 17.8325 35.9752C17.6885 35.6392 17.5925 35.4112 17.5445 35.2912L13.4045 21.8632L9.26455 35.2912C9.24055 35.4112 9.14455 35.6392 8.97655 35.9752C8.80855 36.3112 8.53255 36.6232 8.14855 36.9112C7.78855 37.1752 7.27255 37.3072 6.60055 37.3072Z" fill="#7B65E9"/>
<path d="M33.8472 37.3792C32.9592 37.3792 32.3232 37.2592 31.9392 37.0192C31.5792 36.7552 31.3512 36.4192 31.2552 36.0112C31.1832 35.5792 31.1472 35.1352 31.1472 34.6792V22.1152C31.1472 21.6352 31.1832 21.1912 31.2552 20.7832C31.3512 20.3752 31.5912 20.0512 31.9752 19.8112C32.3592 19.5472 32.9952 19.4152 33.8832 19.4152C34.7472 19.4152 35.3592 19.5472 35.7192 19.8112C36.1032 20.0752 36.3312 20.4112 36.4032 20.8192C36.4992 21.2272 36.5472 21.6832 36.5472 22.1872V34.7152C36.5472 35.1712 36.4992 35.6152 36.4032 36.0472C36.3312 36.4552 36.1032 36.7792 35.7192 37.0192C35.3592 37.2592 34.7352 37.3792 33.8472 37.3792Z" fill="#7B65E9"/>
<path d="M46.166 37.6672C45.518 37.6672 44.81 37.5952 44.042 37.4512C43.298 37.3072 42.566 37.1032 41.846 36.8392C41.126 36.5512 40.526 36.2272 40.046 35.8672C39.566 35.4832 39.29 35.0512 39.218 34.5712C39.17 34.3312 39.17 34.0792 39.218 33.8152C39.29 33.5272 39.41 33.2392 39.578 32.9512C39.746 32.6392 39.95 32.3152 40.19 31.9792C40.382 31.7152 40.598 31.5472 40.838 31.4752C41.078 31.4032 41.354 31.4152 41.666 31.5112C42.05 31.5832 42.434 31.7152 42.818 31.9072C43.226 32.0752 43.622 32.2672 44.006 32.4832C44.414 32.6752 44.834 32.8552 45.266 33.0232C45.698 33.1672 46.142 33.2392 46.598 33.2392C47.27 33.2392 47.786 33.1432 48.146 32.9512C48.53 32.7352 48.722 32.4472 48.722 32.0872C48.722 31.8232 48.638 31.6072 48.47 31.4392C48.326 31.2712 48.11 31.1272 47.822 31.0072C47.558 30.8632 47.246 30.7432 46.886 30.6472C46.526 30.5512 46.13 30.4552 45.698 30.3592C45.29 30.2392 44.87 30.1192 44.438 29.9992C43.8379 29.8312 43.262 29.6152 42.71 29.3512C42.158 29.0872 41.654 28.7512 41.198 28.3432C40.742 27.9112 40.382 27.3952 40.118 26.7952C39.854 26.1712 39.722 25.4152 39.722 24.5272C39.722 23.3512 39.998 22.3672 40.55 21.5752C41.102 20.7832 41.906 20.1832 42.962 19.7752C44.018 19.3432 45.302 19.1272 46.814 19.1272C47.246 19.1272 47.678 19.1512 48.11 19.1992C48.542 19.2472 48.962 19.3312 49.37 19.4512C49.802 19.5712 50.222 19.7152 50.63 19.8832C51.038 20.0512 51.446 20.2552 51.854 20.4952C52.574 20.8312 52.946 21.2872 52.97 21.8632C52.994 22.4392 52.79 23.0272 52.358 23.6272C52.094 24.0352 51.818 24.3352 51.53 24.5272C51.242 24.6952 50.942 24.7432 50.63 24.6712C50.246 24.5752 49.826 24.4192 49.37 24.2032C48.938 23.9872 48.47 23.7832 47.966 23.5912C47.486 23.3992 47.006 23.3032 46.526 23.3032C46.118 23.3032 45.77 23.3632 45.482 23.4832C45.194 23.5792 44.978 23.7232 44.834 23.9152C44.69 24.0832 44.618 24.2872 44.618 24.5272C44.618 24.8392 44.702 25.0912 44.87 25.2832C45.062 25.4512 45.314 25.5952 45.626 25.7152C45.938 25.8352 46.298 25.9432 46.706 26.0392C47.114 26.1352 47.558 26.2312 48.038 26.3272C48.686 26.4472 49.346 26.6152 50.018 26.8312C50.714 27.0232 51.338 27.3112 51.89 27.6952C52.466 28.0792 52.922 28.5952 53.258 29.2432C53.618 29.8912 53.798 30.7432 53.798 31.7992C53.798 33.6952 53.138 35.1472 51.818 36.1552C50.498 37.1632 48.614 37.6672 46.166 37.6672Z" fill="#7B65E9"/>
<path d="M65.1022 37.7032C63.4222 37.7032 61.9702 37.4272 60.7462 36.8752C59.5462 36.3232 58.5622 35.6032 57.7942 34.7152C57.0262 33.8032 56.4502 32.7952 56.0662 31.6912C55.7062 30.5872 55.5262 29.4832 55.5262 28.3792C55.5262 26.5792 55.9342 24.9832 56.7502 23.5912C57.5662 22.1992 58.6942 21.1072 60.1342 20.3152C61.5742 19.4992 63.2302 19.0912 65.1022 19.0912C66.4942 19.0912 67.6942 19.3192 68.7022 19.7752C69.7342 20.2072 70.5742 20.7832 71.2222 21.5032C71.8942 22.1992 72.3862 22.9552 72.6982 23.7712C73.0342 24.5872 73.2022 25.3672 73.2022 26.1112C73.2022 27.4312 72.8782 28.4152 72.2302 29.0632C71.6062 29.6872 70.8022 29.9992 69.8182 29.9992H61.2502C61.2982 30.6232 61.5142 31.1512 61.8982 31.5832C62.3062 32.0152 62.8102 32.3512 63.4102 32.5912C64.0102 32.8312 64.6462 32.9512 65.3182 32.9512C65.8942 32.9512 66.3982 32.9272 66.8302 32.8792C67.2622 32.8072 67.6342 32.7232 67.9462 32.6272C68.2582 32.5072 68.5462 32.3992 68.8102 32.3032C69.0742 32.1832 69.3022 32.0872 69.4942 32.0152C69.7102 31.9432 69.9142 31.8952 70.1062 31.8712C70.4662 31.8472 70.7902 31.9552 71.0782 32.1952C71.3902 32.4112 71.6662 32.7472 71.9062 33.2032C72.0742 33.4672 72.1822 33.7192 72.2302 33.9592C72.3022 34.1992 72.3382 34.4392 72.3382 34.6792C72.3382 35.2552 72.0382 35.7712 71.4382 36.2272C70.8622 36.6832 70.0342 37.0432 68.9542 37.3072C67.8982 37.5712 66.6142 37.7032 65.1022 37.7032ZM61.2502 27.0472H66.9382C67.3222 27.0472 67.5982 26.9872 67.7662 26.8672C67.9582 26.7232 68.0542 26.4592 68.0542 26.0752C68.0542 25.6432 67.9222 25.2712 67.6582 24.9592C67.3942 24.6232 67.0342 24.3712 66.5782 24.2032C66.1462 24.0112 65.6422 23.9152 65.0662 23.9152C64.3222 23.9152 63.6622 24.0592 63.0862 24.3472C62.5102 24.6352 62.0542 25.0192 61.7182 25.4992C61.4062 25.9792 61.2502 26.4952 61.2502 27.0472Z" fill="#7B65E9"/>
<path d="M78.4262 37.3792C77.5382 37.3792 76.9022 37.2472 76.5182 36.9832C76.1582 36.7192 75.9302 36.3712 75.8342 35.9392C75.7382 35.5072 75.6902 35.0632 75.6902 34.6072V14.9512C75.6902 14.4952 75.7382 14.0632 75.8342 13.6552C75.9302 13.2232 76.1702 12.8752 76.5542 12.6112C76.9382 12.3472 77.5742 12.2152 78.4622 12.2152H85.8422C86.8502 12.2152 87.8582 12.3952 88.8662 12.7552C89.8982 13.1152 90.8462 13.6792 91.7102 14.4472C92.5982 15.1912 93.3062 16.1152 93.8342 17.2192C94.3862 18.3232 94.6622 19.6192 94.6622 21.1072C94.6622 22.5712 94.3862 23.8552 93.8342 24.9592C93.3062 26.0632 92.5982 26.9872 91.7102 27.7312C90.8462 28.4512 89.8982 29.0032 88.8662 29.3872C87.8342 29.7472 86.8142 29.9272 85.8062 29.9272H81.1982V34.6432C81.1982 35.0992 81.1502 35.5432 81.0542 35.9752C80.9582 36.3832 80.7182 36.7192 80.3342 36.9832C79.9502 37.2472 79.3142 37.3792 78.4262 37.3792ZM81.1982 24.4552H85.8422C86.3702 24.4552 86.8862 24.3472 87.3902 24.1312C87.9182 23.8912 88.3502 23.5192 88.6862 23.0152C89.0462 22.5112 89.2262 21.8632 89.2262 21.0712C89.2262 20.3992 89.0822 19.8112 88.7942 19.3072C88.5062 18.8032 88.0982 18.4072 87.5702 18.1192C87.0662 17.8312 86.4782 17.6872 85.8062 17.6872H81.1982V24.4552Z" fill="#7B65E9"/>
<path d="M111.679 37.3432C110.791 37.3432 110.131 37.1872 109.699 36.8752C109.291 36.5632 109.087 36.1792 109.087 35.7232L109.447 35.1112C109.303 35.3512 109.027 35.6512 108.619 36.0112C108.211 36.3472 107.683 36.6592 107.035 36.9472C106.387 37.2112 105.583 37.3432 104.623 37.3432C103.519 37.3432 102.463 37.1032 101.455 36.6232C100.471 36.1432 99.5946 35.4832 98.8266 34.6432C98.0586 33.7792 97.4466 32.8072 96.9906 31.7272C96.5586 30.6472 96.3426 29.5072 96.3426 28.3072C96.3426 27.1312 96.5586 26.0152 96.9906 24.9592C97.4466 23.8792 98.0586 22.9312 98.8266 22.1152C99.6186 21.2752 100.507 20.6152 101.491 20.1352C102.475 19.6552 103.519 19.4152 104.623 19.4152C105.511 19.4152 106.267 19.5472 106.891 19.8112C107.515 20.0512 108.031 20.3392 108.439 20.6752C108.871 21.0112 109.195 21.3352 109.411 21.6472L109.123 21.1432C109.099 20.5672 109.291 20.1352 109.699 19.8472C110.131 19.5352 110.803 19.3792 111.715 19.3792C112.579 19.3792 113.191 19.5112 113.551 19.7752C113.935 20.0392 114.163 20.3872 114.235 20.8192C114.331 21.2512 114.379 21.7072 114.379 22.1872V34.6072C114.379 35.0632 114.331 35.5072 114.235 35.9392C114.163 36.3712 113.935 36.7192 113.551 36.9832C113.191 37.2232 112.567 37.3432 111.679 37.3432ZM105.415 31.9792C106.039 31.9792 106.603 31.8232 107.107 31.5112C107.635 31.1752 108.043 30.7312 108.331 30.1792C108.643 29.6272 108.799 29.0152 108.799 28.3432C108.799 27.6472 108.643 27.0352 108.331 26.5072C108.019 25.9552 107.599 25.5232 107.071 25.2112C106.543 24.8752 105.967 24.7072 105.343 24.7072C104.647 24.7072 104.023 24.8752 103.471 25.2112C102.943 25.5472 102.511 25.9912 102.175 26.5432C101.863 27.0952 101.707 27.7192 101.707 28.4152C101.707 29.0632 101.863 29.6632 102.175 30.2152C102.511 30.7432 102.955 31.1752 103.507 31.5112C104.083 31.8232 104.719 31.9792 105.415 31.9792Z" fill="#7B65E9"/>
<path d="M121.685 44.6512C120.701 44.2192 120.125 43.7392 119.957 43.2112C119.813 42.6832 119.945 41.9752 120.353 41.0872L129.389 20.8912C129.797 19.9552 130.241 19.4032 130.721 19.2352C131.225 19.0432 131.969 19.1392 132.953 19.5232C133.913 19.9792 134.465 20.4592 134.609 20.9632C134.777 21.4672 134.669 22.1392 134.285 22.9792L125.213 43.3192C124.805 44.2552 124.361 44.8192 123.881 45.0112C123.401 45.2032 122.669 45.0832 121.685 44.6512ZM124.817 36.2632L116.357 23.3752C115.829 22.5832 115.613 21.9232 115.709 21.3952C115.829 20.8672 116.309 20.3272 117.149 19.7752C118.085 19.1992 118.805 18.9832 119.309 19.1272C119.837 19.2472 120.365 19.7152 120.893 20.5312L127.121 30.0712L124.817 36.2632Z" fill="#7B65E9"/>
<path d="M31.0488 3.24317C31.5967 2.90683 32.3151 3.16748 32.5199 3.77692L34.8173 10.6146C35.0839 11.4083 34.3154 12.1587 33.5283 11.8732L25.0834 8.80908C24.2962 8.52349 24.1877 7.45484 24.9013 7.0168L31.0488 3.24317Z" fill="#7B65E9"/>
</svg>
